<svg width="28" height="26" viewBox="0 0 25 26" fill="none" xmlns="http://www.w3.org/2000/svg">
<path d="M21.2541 26C23.3108 26 25 24.2314 25 22.0936V18.1997C25 16.0618 23.3108 14.2958 21.2541 14.2958H17.5082C15.4516 14.2958 13.7502 16.0619 13.7502 18.1997V22.0936C13.7502 24.2314 15.4516 26 17.5083 26H21.2541ZM7.50389 26C9.56056 26 11.2498 24.2314 11.2498 22.0936V18.1997C11.2498 16.0618 9.56061 14.2958 7.50389 14.2958H3.74586C1.6892 14.2958 0 16.0619 0 18.1997V22.0936C0 24.2314 1.68915 26 3.74586 26H7.50389ZM21.2541 11.6941C23.3108 11.6941 25 9.93814 25 7.80025V3.90391C25 1.76602 23.3108 0 21.2541 0H17.5083C15.4516 0 13.7502 1.76607 13.7502 3.90391V7.80025C13.7502 9.93814 15.4516 11.6941 17.5083 11.6941H21.2541ZM7.50389 11.6941C9.56056 11.6941 11.2498 9.93814 11.2498 7.80025V3.90391C11.2498 1.76602 9.56061 0 7.50389 0H3.74586C1.6892 0 0 1.76607 0 3.90391V7.80025C0 9.93814 1.68915 11.6941 3.74586 11.6941H7.50389Z" fill="#9EB848"/>
</svg>
