<svg width="28" height="26" viewBox="0 0 26 26" fill="none" xmlns="http://www.w3.org/2000/svg">
<path d="M22.1043 26C24.2432 26 25.9999 24.2314 25.9999 22.0936V18.1997C25.9999 16.0618 24.2432 14.2958 22.1043 14.2958H18.2086C16.0696 14.2958 14.3002 16.0619 14.3002 18.1997V22.0936C14.3003 24.2314 16.0697 26 18.2086 26H22.1043ZM7.80405 26C9.94298 26 11.6997 24.2314 11.6997 22.0936V18.1997C11.6997 16.0618 9.94303 14.2958 7.80405 14.2958H3.8957C1.75677 14.2958 7.87232e-07 16.0619 7.87232e-07 18.1997V22.0936C7.87232e-07 24.2314 1.75672 26 3.8957 26H7.80405ZM22.1043 11.6941C24.2432 11.6941 26 9.93815 26 7.80025V3.90391C26 1.76602 24.2433 0 22.1043 0H18.2086C16.0697 0 14.3003 1.76607 14.3003 3.90391V7.80025C14.3003 9.93815 16.0697 11.6941 18.2086 11.6941H22.1043ZM7.80405 11.6941C9.94298 11.6941 11.6997 9.93815 11.6997 7.80025V3.90391C11.6997 1.76602 9.94303 0 7.80405 0H3.8957C1.75677 0 7.87232e-07 1.76607 7.87232e-07 3.90391V7.80025C7.87232e-07 9.93815 1.75672 11.6941 3.8957 11.6941H7.80405Z" fill="black"/>
</svg>
