<svg width="100" height="100" viewBox="0 0 100 100" fill="none" xmlns="http://www.w3.org/2000/svg">
<rect width="100" height="100" rx="50" fill="#FEEEEF"/>
<path d="M47.384 56.56C47.0427 54.5547 46.68 52.4427 46.296 50.224C45.912 47.9627 45.5493 45.808 45.208 43.76C44.9093 41.6693 44.6533 39.8773 44.44 38.384C44.2267 36.8907 44.12 35.9307 44.12 35.504C44.12 34.2667 44.2267 33.328 44.44 32.688C44.696 32.048 45.4427 31.728 46.68 31.728H52.632C53.784 31.728 54.488 32.048 54.744 32.688C55.0427 33.2853 55.192 34.224 55.192 35.504C55.192 35.9733 55.0853 36.9547 54.872 38.448C54.7013 39.8987 54.4453 41.6693 54.104 43.76C53.8053 45.808 53.464 47.9627 53.08 50.224C52.696 52.4427 52.3333 54.5547 51.992 56.56H47.384ZM49.624 70C48.0453 70 46.8933 69.68 46.168 69.04C45.4427 68.4 45.08 67.3333 45.08 65.84C45.08 64.304 45.4213 63.2373 46.104 62.64C46.8293 62 48.0027 61.68 49.624 61.68C51.2453 61.68 52.4187 62 53.144 62.64C53.8693 63.2373 54.232 64.304 54.232 65.84C54.232 67.2907 53.8693 68.3573 53.144 69.04C52.4187 69.68 51.2453 70 49.624 70Z" fill="#DB371F"/>
</svg>
