<svg width="28" height="26" viewBox="0 0 28 26" fill="none" xmlns="http://www.w3.org/2000/svg">
<path d="M9.53156 6.41393C9.94062 6.61505 10.4304 6.44924 10.6323 6.05052C11.2868 4.7548 10.7548 3.17183 9.44504 2.52281C8.94514 2.27527 8.7417 1.67066 8.99162 1.17552C9.1943 0.77485 9.03007 0.28605 8.62473 0.0853082C8.2202 -0.113863 7.7267 0.047229 7.52403 0.448713C6.86953 1.74443 7.40147 3.3274 8.71124 3.97643C9.21114 4.22397 9.41458 4.82858 9.16466 5.32371C8.96198 5.72444 9.12621 6.21319 9.53156 6.41393Z" fill="#181728"/>
<path d="M14.4533 6.41393C14.8624 6.61505 15.3522 6.44924 15.554 6.05052C16.2085 4.7548 15.6766 3.17183 14.3668 2.52281C13.8669 2.27527 13.6635 1.67066 13.9134 1.17552C14.1161 0.77485 13.9519 0.28605 13.5465 0.0853082C13.1412 -0.113863 12.6501 0.047229 12.4458 0.448713C11.7913 1.74443 12.3233 3.3274 13.633 3.97643C14.1329 4.22397 14.3364 4.82858 14.0864 5.32371C13.8838 5.72444 14.048 6.21319 14.4533 6.41393Z" fill="#181728"/>
<path d="M19.3752 6.41393C19.7843 6.61505 20.2741 6.44924 20.4759 6.05052C21.1304 4.7548 20.5985 3.17183 19.2887 2.52281C18.7888 2.27527 18.5854 1.67066 18.8353 1.17552C19.038 0.77485 18.8737 0.28605 18.4684 0.0853082C18.0622 -0.113863 17.5712 0.047229 17.3677 0.448713C16.7132 1.74443 17.2451 3.3274 18.5549 3.97643C19.0548 4.22397 19.2582 4.82858 19.0083 5.32371C18.8056 5.72444 18.9699 6.21319 19.3752 6.41393Z" fill="#181728"/>
<path d="M23.4883 8.125H5.79685C5.34343 8.125 4.97653 8.4884 4.97653 8.9375V13.1002C5.22618 13.0497 5.49273 13.0103 5.79685 13.0103C6.48498 13.0103 7.03131 13.1698 7.43988 13.3475C7.85326 13.1666 8.3956 13.0103 9.0781 13.0103C9.76541 13.0103 10.311 13.169 10.7195 13.3467C11.1385 13.161 11.6841 13 12.3594 13C14.6208 13 16.4609 14.8225 16.4609 17.0625C16.4609 17.7362 16.2951 18.2804 16.1116 18.6891C16.2983 19.104 16.4609 19.6444 16.4609 20.3125C16.4609 20.9862 16.2951 21.5304 16.1116 21.9391C16.2983 22.354 16.4609 22.8944 16.4609 23.5625C16.4609 24.4805 16.1402 25.3189 15.6197 26H18.9766C21.238 26 23.0781 24.1775 23.0781 21.9375V20.5829L27.0972 15.2756C27.6796 14.5068 28 13.5547 28 12.5938C28 10.1293 25.9764 8.125 23.4883 8.125ZM25.785 14.3005L23.0781 17.8754V9.75H23.4883C25.0712 9.75 26.3594 11.0259 26.3594 12.5938C26.3594 13.2055 26.1551 13.8109 25.785 14.3005Z" fill="#181728"/>
<path d="M2.51563 26C3.3891 26 3.89791 25.5491 4.15626 25.4271C4.42209 25.5516 4.89448 25.9897 5.79688 25.9897C6.69923 25.9897 7.17107 25.5519 7.43751 25.4271C7.70335 25.5516 8.17574 25.9897 9.07814 25.9897C9.98048 25.9897 10.4523 25.5519 10.7188 25.4271C10.9789 25.55 11.4882 26 12.3594 26C13.7164 26 14.8203 24.9066 14.8203 23.5625C14.8203 22.6972 14.3651 22.1934 14.242 21.9375C14.366 21.6797 14.8203 21.1754 14.8203 20.3125C14.8203 19.4472 14.3651 18.9434 14.242 18.6875C14.366 18.4297 14.8203 17.9254 14.8203 17.0625C14.8203 15.7184 13.7164 14.625 12.3594 14.625C11.4859 14.625 10.9771 15.0758 10.7188 15.1979C10.4529 15.0733 9.98054 14.6353 9.07814 14.6353C8.17579 14.6353 7.70395 15.073 7.43751 15.1979C7.17167 15.0733 6.69928 14.6353 5.79688 14.6353C4.89454 14.6353 4.42269 15.073 4.15626 15.1979C3.89611 15.075 3.3868 14.625 2.51563 14.625C1.15861 14.625 0 15.7184 0 17.0625C0 17.9277 0.455219 18.4316 0.578376 18.6875C0.45429 18.9452 0 19.4495 0 20.3125C0 21.1777 0.455219 21.6816 0.578376 21.9375C0.45429 22.1952 0 22.6995 0 23.5625C0 24.9067 1.15861 26 2.51563 26ZM10.7188 17.0625C11.1718 17.0625 11.5391 17.4262 11.5391 17.875C11.5391 18.3237 11.1718 18.6875 10.7188 18.6875C10.2657 18.6875 9.89845 18.3237 9.89845 17.875C9.89845 17.4262 10.2657 17.0625 10.7188 17.0625ZM10.7188 21.9375C11.1718 21.9375 11.5391 22.3012 11.5391 22.75C11.5391 23.1987 11.1718 23.5625 10.7188 23.5625C10.2657 23.5625 9.89845 23.1987 9.89845 22.75C9.89845 22.3012 10.2657 21.9375 10.7188 21.9375ZM7.43751 17.0625C7.89054 17.0625 8.25782 17.4262 8.25782 17.875C8.25782 18.3237 7.89054 18.6875 7.43751 18.6875C6.98448 18.6875 6.6172 18.3237 6.6172 17.875C6.6172 17.4262 6.98448 17.0625 7.43751 17.0625ZM7.43751 21.9375C7.89054 21.9375 8.25782 22.3012 8.25782 22.75C8.25782 23.1987 7.89054 23.5625 7.43751 23.5625C6.98448 23.5625 6.6172 23.1987 6.6172 22.75C6.6172 22.3012 6.98448 21.9375 7.43751 21.9375ZM4.15626 17.0625C4.60929 17.0625 4.97657 17.4262 4.97657 17.875C4.97657 18.3237 4.60929 18.6875 4.15626 18.6875C3.70322 18.6875 3.33594 18.3237 3.33594 17.875C3.33594 17.4262 3.70322 17.0625 4.15626 17.0625ZM4.15626 21.9375C4.60929 21.9375 4.97657 22.3012 4.97657 22.75C4.97657 23.1987 4.60929 23.5625 4.15626 23.5625C3.70322 23.5625 3.33594 23.1987 3.33594 22.75C3.33594 22.3012 3.70322 21.9375 4.15626 21.9375Z" fill="#181728"/>
</svg>
