<svg width="45" height="45" viewBox="0 0 45 45" fill="none" xmlns="http://www.w3.org/2000/svg">
<rect x="0.5" y="0.5" width="44" height="44" rx="11.5" fill="white" stroke="#F4F4F4"/>
<path d="M13 28.0422V32H16.9578L28.6307 20.3271L24.6729 16.3693L13 28.0422ZM31.6914 17.2664C31.7892 17.1688 31.8668 17.0528 31.9198 16.9252C31.9727 16.7975 32 16.6606 32 16.5224C32 16.3842 31.9727 16.2473 31.9198 16.1196C31.8668 15.9919 31.7892 15.876 31.6914 15.7783L29.2217 13.3086C29.124 13.2108 29.0081 13.1332 28.8804 13.0802C28.7527 13.0273 28.6158 13 28.4776 13C28.3394 13 28.2025 13.0273 28.0748 13.0802C27.9472 13.1332 27.8312 13.2108 27.7336 13.3086L25.8022 15.2401L29.7599 19.1978L31.6914 17.2664Z" fill="#181728"/>
</svg>
