<svg width="26" height="26" viewBox="0 0 26 26" fill="none" xmlns="http://www.w3.org/2000/svg">
<path d="M26.0001 13.0007C26.0001 12.348 25.4709 11.8188 24.8182 11.8188H20.1437H17.1493H1.18184C0.529142 11.8188 0 12.348 0 13.0007C0 17.6701 2.47498 21.7717 6.18147 24.0644C6.01145 24.2691 5.90907 24.532 5.90907 24.8189C5.90907 25.4716 6.43822 26.0007 7.09091 26.0007H18.9091C19.5618 26.0007 20.0909 25.4716 20.0909 24.8189C20.0909 24.5319 19.9886 24.2691 19.8186 24.0644C23.5251 21.7716 26.0001 17.67 26.0001 13.0007Z" fill="#181728"/>
<path d="M8.32027 5.07311C7.74085 4.4938 7.48471 4.20968 7.48481 3.54535C7.48471 2.88118 7.74096 2.59696 8.32058 2.01739C8.78213 1.55584 8.78213 0.807678 8.32047 0.346126C7.85902 -0.115325 7.11061 -0.115426 6.64906 0.346126C6.00418 0.9911 5.12089 1.87429 5.12109 3.5453C5.12084 5.21657 6.00408 6.09971 6.64895 6.74448C7.22852 7.32395 7.48471 7.60822 7.48471 8.27259C7.48471 8.92503 8.01345 9.45392 8.66574 9.45433H8.66731C9.3196 9.45392 9.84833 8.92493 9.84833 8.27259C9.84843 6.60112 8.96514 5.71793 8.32027 5.07311Z" fill="#181728"/>
<path d="M13.8355 5.07311C13.2561 4.4938 12.9999 4.20968 13 3.54535C12.9999 2.88118 13.2562 2.59696 13.8358 2.01739C14.2973 1.55584 14.2973 0.807678 13.8357 0.346126C13.3742 -0.115325 12.6258 -0.115426 12.1643 0.346126C11.5194 0.9911 10.6361 1.87429 10.6363 3.5453C10.636 5.21657 11.5193 6.09971 12.1642 6.74448C12.7438 7.324 13 7.60827 13 8.27264C13 8.92508 13.5287 9.45397 14.181 9.45438H14.1826C14.8349 9.45397 15.3636 8.92498 15.3636 8.27264C15.3636 6.60112 14.4803 5.71793 13.8355 5.07311Z" fill="#181728"/>
<path d="M23.9681 4.97605C23.453 4.57533 22.7104 4.66816 22.3096 5.18334L17.5218 11.8696H20.3479L24.1753 6.63447C24.5761 6.11929 24.4832 5.37676 23.9681 4.97605Z" fill="#181728"/>
</svg>
