<svg width="28" height="26" viewBox="0 0 28 26" fill="none" xmlns="http://www.w3.org/2000/svg">
<path d="M28 13.0007C28 12.348 27.4302 11.8188 26.7273 11.8188H21.6931H18.4685H1.27274C0.569844 11.8188 0 12.348 0 13.0007C0 17.6699 2.66536 21.7714 6.65695 24.0641C6.47385 24.2688 6.3636 24.5317 6.3636 24.8185C6.3636 25.4712 6.93345 26.0003 7.63634 26.0003H20.3636C21.0665 26.0003 21.6363 25.4712 21.6363 24.8185C21.6363 24.5316 21.5261 24.2688 21.343 24.0641C25.3346 21.7714 28 17.6699 28 13.0007Z" fill="#9EB848"/>
<path d="M8.96015 5.07298C8.33617 4.49368 8.06032 4.20956 8.06043 3.54526C8.06032 2.88111 8.33628 2.59689 8.96048 2.01734C9.45753 1.5558 9.45753 0.807657 8.96037 0.346117C8.46342 -0.115321 7.65744 -0.115423 7.16039 0.346117C6.46591 0.991074 5.51467 1.87424 5.51489 3.54521C5.51462 5.21643 6.4658 6.09955 7.16028 6.7443C7.78442 7.32375 8.06032 7.60802 8.06032 8.27237C8.06032 8.9248 8.62973 9.45367 9.33219 9.45408H9.33388C10.0363 9.45367 10.6058 8.92469 10.6058 8.27237C10.6059 6.60095 9.65463 5.71778 8.96015 5.07298Z" fill="#9EB848"/>
<path d="M14.8997 5.07298C14.2757 4.49368 13.9999 4.20956 14 3.54526C13.9999 2.88111 14.2759 2.59689 14.9001 2.01734C15.3971 1.5558 15.3971 0.807657 14.8999 0.346117C14.403 -0.115321 13.597 -0.115423 13.1 0.346117C12.4055 0.991074 11.4542 1.87424 11.4545 3.54521C11.4542 5.21643 12.4054 6.09955 13.0999 6.7443C13.7241 7.3238 14 7.60807 14 8.27242C14 8.92485 14.5694 9.45372 15.2719 9.45413H15.2736C15.976 9.45372 16.5454 8.92474 16.5454 8.27242C16.5454 6.60095 15.5942 5.71778 14.8997 5.07298Z" fill="#9EB848"/>
<path d="M25.8117 4.97604C25.257 4.57533 24.4572 4.66816 24.0257 5.18332L18.8695 11.8694H21.913L26.0349 6.63441C26.4665 6.11925 26.3665 5.37675 25.8117 4.97604Z" fill="#9EB848"/>
</svg>
