<svg width="31" height="26" viewBox="0 0 31 26" fill="none" xmlns="http://www.w3.org/2000/svg">
<path d="M9.21131 0.378112C9.81066 0.913656 9.8591 1.82228 9.32028 2.41799L4.96133 7.23188C4.69495 7.52673 4.3196 7.70123 3.92003 7.70725C3.52046 7.71326 3.13905 7.56283 2.85451 7.28603L0.426814 4.87909C-0.136217 4.31346 -0.136217 3.39882 0.426814 2.83319C0.989845 2.26756 1.91612 2.26756 2.47915 2.83319L3.81711 4.16303L7.15292 0.480407C7.69173 -0.115311 8.6059 -0.16345 9.20525 0.372094L9.21131 0.378112ZM9.21131 10.0059C9.81066 10.5414 9.8591 11.45 9.32028 12.0458L4.96133 16.8596C4.69495 17.1545 4.3196 17.329 3.92003 17.335C3.52046 17.341 3.13905 17.1906 2.85451 16.9138L0.426814 14.5069C-0.142271 13.9412 -0.142271 13.0266 0.426814 12.467C0.995899 11.9074 1.91612 11.9013 2.47915 12.467L3.81711 13.7968L7.15292 10.1142C7.69173 9.51847 8.6059 9.47033 9.20525 10.0059H9.21131ZM13.5642 3.85614C13.5642 2.79107 14.4299 1.93059 15.5015 1.93059H29.0627C30.1343 1.93059 31 2.79107 31 3.85614C31 4.92121 30.1343 5.78169 29.0627 5.78169H15.5015C14.4299 5.78169 13.5642 4.92121 13.5642 3.85614ZM13.5642 13.4839C13.5642 12.4188 14.4299 11.5584 15.5015 11.5584H29.0627C30.1343 11.5584 31 12.4188 31 13.4839C31 14.549 30.1343 15.4095 29.0627 15.4095H15.5015C14.4299 15.4095 13.5642 14.549 13.5642 13.4839ZM9.68958 23.1117C9.68958 22.0466 10.5553 21.1861 11.6269 21.1861H29.0627C30.1343 21.1861 31 22.0466 31 23.1117C31 24.1767 30.1343 25.0372 29.0627 25.0372H11.6269C10.5553 25.0372 9.68958 24.1767 9.68958 23.1117ZM2.90899 20.2233C3.6797 20.2233 4.41885 20.5276 4.96382 21.0693C5.5088 21.611 5.81496 22.3456 5.81496 23.1117C5.81496 23.8777 5.5088 24.6124 4.96382 25.154C4.41885 25.6957 3.6797 26 2.90899 26C2.13828 26 1.39914 25.6957 0.854165 25.154C0.30919 24.6124 0.00302703 23.8777 0.00302703 23.1117C0.00302703 22.3456 0.30919 21.611 0.854165 21.0693C1.39914 20.5276 2.13828 20.2233 2.90899 20.2233Z" fill="#181728"/>
</svg>
