<svg width="32" height="26" viewBox="0 0 32 26" fill="none" xmlns="http://www.w3.org/2000/svg">
<path d="M15.5 13C17.2429 13 18.9143 12.3152 20.1467 11.0962C21.3791 9.87721 22.0714 8.22391 22.0714 6.5C22.0714 4.77609 21.3791 3.12279 20.1467 1.90381C18.9143 0.68482 17.2429 0 15.5 0C13.7571 0 12.0857 0.68482 10.8533 1.90381C9.62092 3.12279 8.92857 4.77609 8.92857 6.5C8.92857 8.22391 9.62092 9.87721 10.8533 11.0962C12.0857 12.3152 13.7571 13 15.5 13ZM13.1538 15.4375C8.09688 15.4375 4 19.4898 4 24.4918C4 25.3246 4.68281 26 5.52478 26H25.4752C26.3172 26 27 25.3246 27 24.4918C27 19.4898 22.9031 15.4375 17.8462 15.4375H13.1538Z" fill="#181728"/>
</svg>
