<svg width="32" height="26" viewBox="0 0 32 26" fill="none" xmlns="http://www.w3.org/2000/svg">
<path d="M16.5 13C18.2429 13 19.9143 12.3152 21.1467 11.0962C22.3791 9.87721 23.0714 8.22391 23.0714 6.5C23.0714 4.77609 22.3791 3.12279 21.1467 1.90381C19.9143 0.68482 18.2429 0 16.5 0C14.7571 0 13.0857 0.68482 11.8533 1.90381C10.6209 3.12279 9.92857 4.77609 9.92857 6.5C9.92857 8.22391 10.6209 9.87721 11.8533 11.0962C13.0857 12.3152 14.7571 13 16.5 13ZM14.1538 15.4375C9.09688 15.4375 5 19.4898 5 24.4918C5 25.3246 5.68281 26 6.52478 26H26.4752C27.3172 26 28 25.3246 28 24.4918C28 19.4898 23.9031 15.4375 18.8462 15.4375H14.1538Z" fill="#9EB848"/>
</svg>
