<svg width="32" height="26" viewBox="0 0 32 26" fill="none" xmlns="http://www.w3.org/2000/svg">
<path d="M11.7672 0C14.4544 0 16.631 2.07768 16.631 4.64286V5.57143C16.631 6.08214 16.1933 6.5 15.6582 6.5C12.971 6.5 10.7944 4.42232 10.7944 1.85714V0.928571C10.7944 0.417857 11.2321 0 11.7672 0ZM4.47138 1.85714H7.38969C8.1983 1.85714 8.84884 2.47813 8.84884 3.25C8.84884 4.02187 8.1983 4.64286 7.38969 4.64286H4.47138C3.66276 4.64286 3.01222 4.02187 3.01222 3.25C3.01222 2.47813 3.66276 1.85714 4.47138 1.85714ZM2.52584 6.03571H9.33523C10.1438 6.03571 10.7944 6.6567 10.7944 7.42857C10.7944 8.20045 10.1438 8.82143 9.33523 8.82143H2.52584C1.71722 8.82143 1.06668 8.20045 1.06668 7.42857C1.06668 6.6567 1.71722 6.03571 2.52584 6.03571ZM3.01222 11.6071C3.01222 10.8353 3.66276 10.2143 4.47138 10.2143H7.38969C8.1983 10.2143 8.84884 10.8353 8.84884 11.6071C8.84884 12.379 8.1983 13 7.38969 13H4.47138C3.66276 13 3.01222 12.379 3.01222 11.6071ZM17.6038 0.928571C17.6038 0.417857 18.0415 0 18.5765 0C21.2638 0 23.4404 2.07768 23.4404 4.64286V5.57143C23.4404 6.08214 23.0027 6.5 22.4676 6.5C19.7804 6.5 17.6038 4.42232 17.6038 1.85714V0.928571ZM25.3859 0C28.0732 0 30.2498 2.07768 30.2498 4.64286V5.57143C30.2498 6.08214 29.812 6.5 29.277 6.5C26.5897 6.5 24.4132 4.42232 24.4132 1.85714V0.928571C24.4132 0.417857 24.8509 0 25.3859 0ZM30.2498 9.28571V10.2143C30.2498 12.7795 28.0732 14.8571 25.3859 14.8571C24.8509 14.8571 24.4132 14.4393 24.4132 13.9286V13C24.4132 10.4348 26.5897 8.35714 29.277 8.35714C29.812 8.35714 30.2498 8.775 30.2498 9.28571ZM22.4676 8.35714C23.0027 8.35714 23.4404 8.775 23.4404 9.28571V10.2143C23.4404 12.7795 21.2638 14.8571 18.5765 14.8571C18.0415 14.8571 17.6038 14.4393 17.6038 13.9286V13C17.6038 10.4348 19.7804 8.35714 22.4676 8.35714ZM16.631 9.28571V10.2143C16.631 12.7795 14.4544 14.8571 11.7672 14.8571C11.2321 14.8571 10.7944 14.4393 10.7944 13.9286V13C10.7944 10.4348 12.971 8.35714 15.6582 8.35714C16.1933 8.35714 16.631 8.775 16.631 9.28571ZM1.27947 18.3161C1.16396 17.4629 1.85706 16.7143 2.75687 16.7143H30.5051C31.405 16.7143 32.0981 17.4629 31.9886 18.3161C31.6056 21.2295 29.2892 23.5045 26.3587 24.0268V24.1429C26.3587 25.1701 25.4893 26 24.4132 26H8.84884C7.77272 26 6.9033 25.1701 6.9033 24.1429V24.0268C3.97283 23.5045 1.65642 21.2295 1.27947 18.3161Z" fill="#181728"/>
</svg>
