<svg width="32" height="26" viewBox="0 0 32 26" fill="none" xmlns="http://www.w3.org/2000/svg">
<path d="M11.3776 0C13.9838 0 16.0947 2.07768 16.0947 4.64286V5.57143C16.0947 6.08214 15.6702 6.5 15.1513 6.5C12.5451 6.5 10.4342 4.42232 10.4342 1.85714V0.928571C10.4342 0.417857 10.8587 0 11.3776 0ZM4.30197 1.85714H7.13223C7.91645 1.85714 8.54736 2.47812 8.54736 3.25C8.54736 4.02187 7.91645 4.64286 7.13223 4.64286H4.30197C3.51775 4.64286 2.88684 4.02187 2.88684 3.25C2.88684 2.47812 3.51775 1.85714 4.30197 1.85714ZM2.41513 6.03571H9.01907C9.80329 6.03571 10.4342 6.6567 10.4342 7.42857C10.4342 8.20045 9.80329 8.82143 9.01907 8.82143H2.41513C1.63091 8.82143 1 8.20045 1 7.42857C1 6.6567 1.63091 6.03571 2.41513 6.03571ZM2.88684 11.6071C2.88684 10.8353 3.51775 10.2143 4.30197 10.2143H7.13223C7.91645 10.2143 8.54736 10.8353 8.54736 11.6071C8.54736 12.379 7.91645 13 7.13223 13H4.30197C3.51775 13 2.88684 12.379 2.88684 11.6071ZM17.0381 0.928571C17.0381 0.417857 17.4627 0 17.9816 0C20.5878 0 22.6987 2.07768 22.6987 4.64286V5.57143C22.6987 6.08214 22.2741 6.5 21.7552 6.5C19.149 6.5 17.0381 4.42232 17.0381 1.85714V0.928571ZM24.5855 0C27.1917 0 29.3026 2.07768 29.3026 4.64286V5.57143C29.3026 6.08214 28.8781 6.5 28.3592 6.5C25.753 6.5 23.6421 4.42232 23.6421 1.85714V0.928571C23.6421 0.417857 24.0666 0 24.5855 0ZM29.3026 9.28571V10.2143C29.3026 12.7795 27.1917 14.8571 24.5855 14.8571C24.0666 14.8571 23.6421 14.4393 23.6421 13.9286V13C23.6421 10.4348 25.753 8.35714 28.3592 8.35714C28.8781 8.35714 29.3026 8.775 29.3026 9.28571ZM21.7552 8.35714C22.2741 8.35714 22.6987 8.775 22.6987 9.28571V10.2143C22.6987 12.7795 20.5878 14.8571 17.9816 14.8571C17.4627 14.8571 17.0381 14.4393 17.0381 13.9286V13C17.0381 10.4348 19.149 8.35714 21.7552 8.35714ZM16.0947 9.28571V10.2143C16.0947 12.7795 13.9838 14.8571 11.3776 14.8571C10.8587 14.8571 10.4342 14.4393 10.4342 13.9286V13C10.4342 10.4348 12.5451 8.35714 15.1513 8.35714C15.6702 8.35714 16.0947 8.775 16.0947 9.28571ZM1.20637 18.3161C1.09434 17.4629 1.76653 16.7143 2.63919 16.7143H29.5502C30.4229 16.7143 31.0951 17.4629 30.989 18.3161C30.6175 21.2295 28.371 23.5045 25.5289 24.0268V24.1429C25.5289 25.1701 24.6857 26 23.6421 26H8.54736C7.5037 26 6.66052 25.1701 6.66052 24.1429V24.0268C3.81847 23.5045 1.57195 21.2295 1.20637 18.3161Z" fill="#9EB848"/>
</svg>
