<svg width="28" height="26" viewBox="0 0 28 26" fill="none" xmlns="http://www.w3.org/2000/svg">
<path d="M15.8593 8.22607V4.41748C15.8593 3.99681 15.4921 3.65576 15.039 3.65576H12.4619L10.7289 8.22607H15.8593Z" fill="#9EB848"/>
<path d="M10.7226 3.65576H0.820312C0.367281 3.65576 0 3.99681 0 4.41748V8.22607H8.98953L10.7226 3.65576Z" fill="#9EB848"/>
<path d="M12.932 2.41707L16.8788 1.50087C17.3183 1.39885 17.5855 0.985292 17.4756 0.577163C17.3658 0.169034 16.9203 -0.0791337 16.4809 0.0229366L12.1059 1.03856C11.8385 1.10062 11.6226 1.28317 11.5311 1.52454L10.7228 3.65618H12.4621L12.932 2.41707Z" fill="#9EB848"/>
<path d="M26.6793 13.7445C25.854 12.8059 24.6545 12.2891 23.3019 12.2891C22.6839 12.2891 22.1064 12.3931 21.5812 12.5946C21.789 11.8246 22.2177 11.1184 22.8379 10.5425C23.1582 10.245 23.1582 9.76277 22.8379 9.46529C22.5176 9.16782 21.9982 9.16782 21.6778 9.46529C20.7203 10.3544 20.1027 11.4749 19.885 12.6909C19.2997 12.4258 18.6427 12.289 17.9326 12.289C16.5799 12.289 15.3804 12.8059 14.5551 13.7444C13.6787 14.7411 13.2344 16.1479 13.2344 17.9258C13.2344 21.4849 15.7507 26 18.5788 26C19.2538 26 19.8972 25.7334 20.4394 25.2289C20.5017 25.1709 20.5775 25.1623 20.6171 25.1623C20.6568 25.1623 20.7326 25.171 20.7949 25.229C21.3371 25.7334 21.9805 26 22.6556 26C25.4837 26 28 21.4849 28 17.9258C28 16.1479 27.5557 14.7411 26.6793 13.7445Z" fill="#9EB848"/>
<path d="M11.5937 17.9258C11.5937 15.7876 12.1625 14.0567 13.2842 12.7809C13.978 11.992 14.8592 11.4187 15.8594 11.0896V9.75H0V17.8892C0 19.4174 0.826273 20.8061 2.1875 21.6176V25.2383C2.1875 25.659 2.55478 26 3.00781 26H12.8516C13.3046 26 13.6719 25.659 13.6719 25.2383V24.4367C13.5888 24.3149 13.507 24.1902 13.4268 24.0617C12.279 22.2235 11.5937 19.9297 11.5937 17.9258ZM4.10156 16.3516C3.64853 16.3516 3.28125 16.0105 3.28125 15.5898C3.28125 15.1692 3.64853 14.8281 4.10156 14.8281C4.55459 14.8281 4.92187 15.1692 4.92187 15.5898C4.92187 16.0105 4.55459 16.3516 4.10156 16.3516ZM8.20312 18.8906C7.75009 18.8906 7.38281 18.5496 7.38281 18.1289C7.38281 17.7082 7.75009 17.3672 8.20312 17.3672C8.65616 17.3672 9.02344 17.7082 9.02344 18.1289C9.02344 18.5496 8.65616 18.8906 8.20312 18.8906ZM9.02344 14.8281C8.57041 14.8281 8.20312 14.4871 8.20312 14.0664C8.20312 13.6457 8.57041 13.3047 9.02344 13.3047C9.47647 13.3047 9.84375 13.6457 9.84375 14.0664C9.84375 14.4871 9.47647 14.8281 9.02344 14.8281Z" fill="#9EB848"/>
</svg>
