<svg width="26" height="26" viewBox="0 0 26 26" fill="none" xmlns="http://www.w3.org/2000/svg">
<path d="M14.7265 8.22607V4.41748C14.7265 3.99681 14.3855 3.65576 13.9648 3.65576H11.5718L9.96254 8.22607H14.7265Z" fill="#181728"/>
<path d="M9.95673 3.65576H0.761719C0.341047 3.65576 0 3.99681 0 4.41748V8.22607H8.34742L9.95673 3.65576Z" fill="#181728"/>
<path d="M12.0083 2.41707L15.6731 1.50087C16.0813 1.39885 16.3294 0.985292 16.2274 0.577163C16.1253 0.169034 15.7117 -0.0791337 15.3037 0.0229366L11.2412 1.03856C10.9929 1.10062 10.7924 1.28317 10.7074 1.52454L9.95685 3.65618H11.5719L12.0083 2.41707Z" fill="#181728"/>
<path d="M24.7736 13.7445C24.0073 12.8059 22.8935 12.2891 21.6374 12.2891C21.0636 12.2891 20.5274 12.3931 20.0397 12.5946C20.2326 11.8246 20.6307 11.1184 21.2066 10.5425C21.5041 10.245 21.5041 9.76277 21.2066 9.46529C20.9092 9.16782 20.4269 9.16782 20.1294 9.46529C19.2403 10.3544 18.6668 11.4749 18.4646 12.6909C17.9211 12.4258 17.3111 12.289 16.6517 12.289C15.3956 12.289 14.2818 12.8059 13.5155 13.7444C12.7017 14.7411 12.2891 16.1479 12.2891 17.9258C12.2891 21.4849 14.6257 26 17.2518 26C17.8786 26 18.476 25.7334 18.9794 25.2289C19.0373 25.1709 19.1077 25.1623 19.1445 25.1623C19.1813 25.1623 19.2517 25.171 19.3096 25.229C19.8131 25.7334 20.4105 26 21.0373 26C23.6634 26 26 21.4849 26 17.9258C26 16.1479 25.5874 14.7411 24.7736 13.7445Z" fill="#181728"/>
<path d="M10.7656 17.9258C10.7656 15.7876 11.2937 14.0567 12.3354 12.7809C12.9796 11.992 13.7978 11.4187 14.7266 11.0896V9.75H0V17.8892C0 19.4174 0.767254 20.8061 2.03125 21.6176V25.2383C2.03125 25.659 2.3723 26 2.79297 26H11.9336C12.3543 26 12.6953 25.659 12.6953 25.2383V24.4367C12.6182 24.3149 12.5422 24.1902 12.4677 24.0617C11.4019 22.2235 10.7656 19.9297 10.7656 17.9258ZM3.80859 16.3516C3.38792 16.3516 3.04687 16.0105 3.04687 15.5898C3.04687 15.1692 3.38792 14.8281 3.80859 14.8281C4.22927 14.8281 4.57031 15.1692 4.57031 15.5898C4.57031 16.0105 4.22927 16.3516 3.80859 16.3516ZM7.61719 18.8906C7.19651 18.8906 6.85547 18.5496 6.85547 18.1289C6.85547 17.7082 7.19651 17.3672 7.61719 17.3672C8.03786 17.3672 8.37891 17.7082 8.37891 18.1289C8.37891 18.5496 8.03786 18.8906 7.61719 18.8906ZM8.37891 14.8281C7.95823 14.8281 7.61719 14.4871 7.61719 14.0664C7.61719 13.6457 7.95823 13.3047 8.37891 13.3047C8.79958 13.3047 9.14062 13.6457 9.14062 14.0664C9.14062 14.4871 8.79958 14.8281 8.37891 14.8281Z" fill="#181728"/>
</svg>
