<svg width="50" height="50" viewBox="0 0 50 50" fill="none" xmlns="http://www.w3.org/2000/svg">
<rect width="50" height="50" rx="12" fill="#ECF8D5"/>
<path d="M18.0028 34.3324C16.5994 34.3324 15.3949 33.9773 14.3892 33.267C13.3892 32.5511 12.6193 31.5199 12.0795 30.1733C11.5455 28.821 11.2784 27.1932 11.2784 25.2898C11.2841 23.3864 11.554 21.767 12.0881 20.4318C12.6278 19.0909 13.3977 18.0682 14.3977 17.3636C15.4034 16.6591 16.6051 16.3068 18.0028 16.3068C19.4006 16.3068 20.6023 16.6591 21.608 17.3636C22.6136 18.0682 23.3835 19.0909 23.9176 20.4318C24.4574 21.7727 24.7273 23.392 24.7273 25.2898C24.7273 27.1989 24.4574 28.8295 23.9176 30.1818C23.3835 31.5284 22.6136 32.5568 21.608 33.267C20.608 33.9773 19.4063 34.3324 18.0028 34.3324ZM18.0028 31.6648C19.0938 31.6648 19.9545 31.1278 20.5852 30.054C21.2216 28.9744 21.5398 27.3864 21.5398 25.2898C21.5398 23.9034 21.3949 22.7386 21.1051 21.7955C20.8153 20.8523 20.4063 20.142 19.8778 19.6648C19.3494 19.1818 18.7244 18.9403 18.0028 18.9403C16.9176 18.9403 16.0597 19.4801 15.429 20.5597C14.7983 21.6335 14.4801 23.2102 14.4744 25.2898C14.4688 26.6818 14.608 27.8523 14.892 28.8011C15.1818 29.75 15.5909 30.4659 16.1193 30.9489C16.6477 31.4261 17.2756 31.6648 18.0028 31.6648ZM27.5589 34V31.7159L33.6186 25.7756C34.1982 25.1903 34.6811 24.6705 35.0675 24.2159C35.4538 23.7614 35.7436 23.321 35.9368 22.8949C36.13 22.4687 36.2266 22.0142 36.2266 21.5312C36.2266 20.9801 36.1016 20.5085 35.8516 20.1165C35.6016 19.7188 35.2578 19.4119 34.8203 19.196C34.3828 18.9801 33.8857 18.8722 33.3288 18.8722C32.755 18.8722 32.2521 18.9915 31.8203 19.2301C31.3885 19.4631 31.0533 19.7955 30.8146 20.2273C30.5817 20.6591 30.4652 21.1733 30.4652 21.7699H27.4567C27.4567 20.6619 27.7095 19.6989 28.2152 18.8807C28.7209 18.0625 29.4169 17.429 30.3033 16.9801C31.1953 16.5312 32.218 16.3068 33.3714 16.3068C34.5419 16.3068 35.5703 16.5256 36.4567 16.9631C37.343 17.4006 38.0305 18 38.5192 18.7614C39.0135 19.5227 39.2607 20.392 39.2607 21.3693C39.2607 22.0227 39.1357 22.6648 38.8857 23.2955C38.6357 23.9261 38.1953 24.625 37.5646 25.392C36.9396 26.1591 36.0618 27.0881 34.9311 28.179L31.9226 31.2386V31.358H39.5249V34H27.5589Z" fill="#9EB848"/>
</svg>
