<svg width="50" height="50" viewBox="0 0 50 50" fill="none" xmlns="http://www.w3.org/2000/svg">
<rect width="50" height="50" rx="12" fill="#ECF8D5"/>
<path d="M17.0028 34.3324C15.5994 34.3324 14.3949 33.9773 13.3892 33.267C12.3892 32.5511 11.6193 31.5199 11.0795 30.1733C10.5455 28.821 10.2784 27.1932 10.2784 25.2898C10.2841 23.3864 10.554 21.767 11.0881 20.4318C11.6278 19.0909 12.3977 18.0682 13.3977 17.3636C14.4034 16.6591 15.6051 16.3068 17.0028 16.3068C18.4006 16.3068 19.6023 16.6591 20.608 17.3636C21.6136 18.0682 22.3835 19.0909 22.9176 20.4318C23.4574 21.7727 23.7273 23.392 23.7273 25.2898C23.7273 27.1989 23.4574 28.8295 22.9176 30.1818C22.3835 31.5284 21.6136 32.5568 20.608 33.267C19.608 33.9773 18.4063 34.3324 17.0028 34.3324ZM17.0028 31.6648C18.0938 31.6648 18.9545 31.1278 19.5852 30.054C20.2216 28.9744 20.5398 27.3864 20.5398 25.2898C20.5398 23.9034 20.3949 22.7386 20.1051 21.7955C19.8153 20.8523 19.4063 20.142 18.8778 19.6648C18.3494 19.1818 17.7244 18.9403 17.0028 18.9403C15.9176 18.9403 15.0597 19.4801 14.429 20.5597C13.7983 21.6335 13.4801 23.2102 13.4744 25.2898C13.4688 26.6818 13.608 27.8523 13.892 28.8011C14.1818 29.75 14.5909 30.4659 15.1193 30.9489C15.6477 31.4261 16.2756 31.6648 17.0028 31.6648ZM32.8232 34.2386C31.5959 34.2386 30.505 34.0284 29.5504 33.608C28.6016 33.1875 27.8516 32.6023 27.3004 31.8523C26.7493 31.1023 26.4567 30.2358 26.4226 29.2528H29.6271C29.6555 29.7244 29.8118 30.1364 30.0959 30.4886C30.38 30.8352 30.7578 31.1051 31.2294 31.2983C31.701 31.4915 32.2294 31.5881 32.8146 31.5881C33.4396 31.5881 33.9936 31.4801 34.4766 31.2642C34.9595 31.0426 35.3374 30.7358 35.6101 30.3438C35.8828 29.9517 36.0163 29.5 36.0107 28.9886C36.0163 28.4602 35.88 27.9943 35.6016 27.5909C35.3232 27.1875 34.9197 26.8722 34.3913 26.6449C33.8686 26.4176 33.2379 26.304 32.4993 26.304H30.9567V23.8665H32.4993C33.1072 23.8665 33.6385 23.7614 34.093 23.5511C34.5533 23.3409 34.9141 23.0455 35.1754 22.6648C35.4368 22.2784 35.5646 21.8324 35.5589 21.3267C35.5646 20.8324 35.4538 20.4034 35.2266 20.0398C35.005 19.6705 34.6896 19.3835 34.2805 19.179C33.8771 18.9744 33.4027 18.8722 32.8572 18.8722C32.3232 18.8722 31.8288 18.9687 31.3743 19.1619C30.9197 19.3551 30.5533 19.6307 30.2749 19.9886C29.9964 20.3409 29.8487 20.7614 29.8317 21.25H26.7891C26.8118 20.2727 27.093 19.4148 27.6328 18.6761C28.1783 17.9318 28.9055 17.3523 29.8146 16.9375C30.7237 16.517 31.7436 16.3068 32.8743 16.3068C34.0391 16.3068 35.0504 16.5256 35.9084 16.9631C36.772 17.3949 37.4396 17.9773 37.9112 18.7102C38.3828 19.4432 38.6186 20.2528 38.6186 21.1392C38.6243 22.1222 38.3345 22.946 37.7493 23.6108C37.1697 24.2756 36.4084 24.7102 35.4652 24.9148V25.0511C36.6925 25.2216 37.6328 25.6761 38.2862 26.4148C38.9453 27.1477 39.272 28.0597 39.2663 29.1506C39.2663 30.1278 38.9879 31.0028 38.4311 31.7756C37.88 32.5426 37.1186 33.1449 36.147 33.5824C35.1811 34.0199 34.0732 34.2386 32.8232 34.2386Z" fill="#9EB848"/>
</svg>
