<svg width="50" height="50" viewBox="0 0 50 50" fill="none" xmlns="http://www.w3.org/2000/svg">
<rect width="50" height="50" rx="12" fill="#ECF8D5"/>
<path d="M19.0028 34.3324C17.5994 34.3324 16.3949 33.9773 15.3892 33.267C14.3892 32.5511 13.6193 31.5199 13.0795 30.1733C12.5455 28.821 12.2784 27.1932 12.2784 25.2898C12.2841 23.3864 12.554 21.767 13.0881 20.4318C13.6278 19.0909 14.3977 18.0682 15.3977 17.3636C16.4034 16.6591 17.6051 16.3068 19.0028 16.3068C20.4006 16.3068 21.6023 16.6591 22.608 17.3636C23.6136 18.0682 24.3835 19.0909 24.9176 20.4318C25.4574 21.7727 25.7273 23.392 25.7273 25.2898C25.7273 27.1989 25.4574 28.8295 24.9176 30.1818C24.3835 31.5284 23.6136 32.5568 22.608 33.267C21.608 33.9773 20.4063 34.3324 19.0028 34.3324ZM19.0028 31.6648C20.0938 31.6648 20.9545 31.1278 21.5852 30.054C22.2216 28.9744 22.5398 27.3864 22.5398 25.2898C22.5398 23.9034 22.3949 22.7386 22.1051 21.7955C21.8153 20.8523 21.4063 20.142 20.8778 19.6648C20.3494 19.1818 19.7244 18.9403 19.0028 18.9403C17.9176 18.9403 17.0597 19.4801 16.429 20.5597C15.7983 21.6335 15.4801 23.2102 15.4744 25.2898C15.4688 26.6818 15.608 27.8523 15.892 28.8011C16.1818 29.75 16.5909 30.4659 17.1193 30.9489C17.6477 31.4261 18.2756 31.6648 19.0028 31.6648ZM35.6584 16.5455V34H32.4964V19.6222H32.3942L28.3118 22.2301V19.3324L32.6499 16.5455H35.6584Z" fill="#9EB848"/>
</svg>
